<svg width="1545" height="1445" viewBox="0 0 1545 1445" fill="none" xmlns="http://www.w3.org/2000/svg">
<circle cx="1096" cy="1193" r="91" fill="black" fill-opacity="0.2"/>
<circle cx="1454" cy="909" r="91" fill="black" fill-opacity="0.2"/>
<circle cx="1278" cy="1057" r="91" fill="black" fill-opacity="0.2"/>
<circle cx="1025" cy="927" r="91" fill="black" fill-opacity="0.2"/>
<circle cx="1383" cy="643" r="91" fill="black" fill-opacity="0.2"/>
<circle cx="1207" cy="791" r="91" fill="black" fill-opacity="0.2"/>
<circle cx="493" cy="1354" r="91" fill="black" fill-opacity="0.2"/>
<circle cx="851" cy="1070" r="91" fill="black" fill-opacity="0.2"/>
<circle cx="675" cy="1218" r="91" fill="black" fill-opacity="0.2"/>
<circle cx="1120" cy="580" r="63" fill="black" fill-opacity="0.2"/>
<ellipse cx="1369" cy="382.5" rx="63" ry="63.5" fill="black" fill-opacity="0.2"/>
<circle cx="1246.5" cy="485.5" r="63.5" fill="black" fill-opacity="0.2"/>
<ellipse cx="770" cy="890.5" rx="63" ry="63.5" fill="black" fill-opacity="0.2"/>
<circle cx="647.5" cy="993.5" r="63.5" fill="black" fill-opacity="0.2"/>
<ellipse cx="521" cy="1081.5" rx="63" ry="63.5" fill="black" fill-opacity="0.2"/>
<circle cx="398.5" cy="1184.5" r="63.5" fill="black" fill-opacity="0.2"/>
<ellipse cx="1359.5" cy="199" rx="45.5" ry="46" fill="black" fill-opacity="0.2"/>
<circle cx="1271" cy="273" r="46" fill="black" fill-opacity="0.2"/>
<ellipse cx="1101.5" cy="420" rx="45.5" ry="46" fill="black" fill-opacity="0.2"/>
<circle cx="1013" cy="494" r="46" fill="black" fill-opacity="0.2"/>
<ellipse cx="489.5" cy="928" rx="45.5" ry="46" fill="black" fill-opacity="0.2"/>
<circle cx="401" cy="1002" r="46" fill="black" fill-opacity="0.2"/>
<ellipse cx="298.5" cy="1055" rx="45.5" ry="46" fill="black" fill-opacity="0.2"/>
<circle cx="210" cy="1129" r="46" fill="black" fill-opacity="0.2"/>
<circle cx="1366.5" cy="32.5" r="32.5" fill="black" fill-opacity="0.2"/>
<circle cx="1303.5" cy="85.5" r="32.5" fill="black" fill-opacity="0.2"/>
<circle cx="901.5" cy="431.5" r="32.5" fill="black" fill-opacity="0.2"/>
<circle cx="838.5" cy="484.5" r="32.5" fill="black" fill-opacity="0.2"/>
<circle cx="223.5" cy="969.5" r="32.5" fill="black" fill-opacity="0.2"/>
<circle cx="160.5" cy="1022.5" r="32.5" fill="black" fill-opacity="0.2"/>
<circle cx="95.5" cy="1087.5" r="32.5" fill="black" fill-opacity="0.2"/>
<circle cx="32.5" cy="1140.5" r="32.5" fill="black" fill-opacity="0.2"/>
</svg>
