<svg width="183" height="184" viewBox="0 0 183 184" fill="none" xmlns="http://www.w3.org/2000/svg">
<path d="M87.1395 0.0865145C77.775 0.692157 70.4693 2.0909 62.2057 4.85955C55.8579 6.9793 48.1233 10.6997 42.6762 14.247C41.3752 15.0834 41.3466 15.0834 44.0344 14.7806C46.7651 14.4633 53.3273 14.348 56.0438 14.5498C65.2081 15.242 72.671 17.2896 80.8488 21.3417C84.4088 23.1154 87.697 25.1053 93.5016 29.0132C96.2323 30.8445 98.6484 32.3586 99.6492 32.8489C101.193 33.6132 101.351 33.6708 102.366 33.6708C103.409 33.6708 103.466 33.6564 104.567 32.9498C105.196 32.5461 106.383 31.5799 107.198 30.8012C109.871 28.2056 111.53 25.2063 112.316 21.4859C112.674 19.7843 112.688 16.1216 112.331 14.4201C111.416 10.0364 109.085 5.6094 105.625 1.68714L105.011 0.994978L103.366 0.778677C99.8351 0.317235 96.9614 0.129775 92.5723 0.0865145C90.056 0.0576743 87.6113 0.0576743 87.1395 0.0865145Z" fill="#CD7916"/>
<path d="M109.085 1.80252C109.085 1.84578 109.4 2.35049 109.771 2.92729C112.745 7.39751 114.747 12.185 115.39 16.3668C115.647 17.9963 115.605 21.01 115.319 22.6251C114.489 27.326 111.802 31.9693 106.941 37.0884C106.069 38.0257 105.368 38.8332 105.397 38.9053C105.425 38.9919 117.663 50.5567 118.893 51.6527C119.193 51.9122 119.222 51.8978 123.182 48.711C138.78 36.1944 144.527 32.1712 152.734 28.0182C154.206 27.2684 155.407 26.5762 155.407 26.4752C155.407 26.158 152.362 23.2884 149.545 20.9668C137.951 11.3774 124.168 4.77306 109.557 1.80252C109.3 1.74484 109.085 1.74484 109.085 1.80252Z" fill="#CD7916"/>
<path d="M44.4633 16.4533C42.1901 16.6696 40.8176 16.8859 39.2449 17.2608C37.7152 17.6213 37.6294 17.6646 36.2426 18.7317C17.3707 33.1373 4.63218 54.6665 1.07226 78.1423C0.657652 80.9398 0.528981 82.2232 0.71484 81.8338C0.786324 81.6752 1.05796 80.9831 1.32961 80.3053C4.28906 72.7636 12.5955 66.6784 26.5922 61.8044C34.2553 59.1223 41.5324 57.3053 59.9468 53.4263C76.6456 49.9223 81.9783 48.5523 87.3539 46.4038C91.8574 44.6012 94.9599 42.5248 96.2609 40.4194C96.7184 39.684 97.2188 38.2276 97.2188 37.6219C97.2188 35.8771 93.2442 31.8539 88.7121 29.0132C80.0625 23.6201 69.1397 19.3517 59.0747 17.4627C53.6991 16.4389 48.3377 16.0784 44.4633 16.4533Z" fill="#CD7916"/>
<path d="M155.407 30.758C144.67 37.7229 132.632 46.6489 124.483 53.7003C123.296 54.7241 122.682 55.3442 122.739 55.4884C122.882 55.8922 134.462 70.4997 134.648 70.4997C134.748 70.5141 135.649 70.0959 136.664 69.5912C142.511 66.6207 148.473 64.7461 153.806 64.1549C155.836 63.9386 159.853 64.0539 161.698 64.3856C169.289 65.7555 175.566 70.3411 180.984 78.5172C181.856 79.8439 182.285 80.3919 182.228 80.1035C182.185 79.8583 182.042 78.9931 181.928 78.1567C180.655 69.3317 177.767 60.1317 173.636 51.6959C170.705 45.6972 167.717 40.852 163.857 35.8339C161.683 33.0075 158.324 29.1285 158.052 29.1285C157.98 29.143 156.78 29.864 155.407 30.758Z" fill="#CD7916"/>
<path d="M102.294 41.8326C102.094 42.1498 99.2203 44.3705 97.7191 45.3511C92.0147 49.1147 84.7376 52.0564 74.7012 54.652C70.1977 55.8201 66.3375 56.6708 56.0294 58.7618C41.0749 61.8044 35.442 63.1599 28.9512 65.2796C15.0546 69.8219 6.16195 76.1235 1.11516 85.0063C0.243047 86.5348 0.214453 86.6213 0.114375 87.8903C-0.0285934 89.9235 -0.0142965 94.1486 0.142969 97.0614C1.01508 112.75 5.54719 127.401 13.6821 140.711C16.2984 144.994 21.3452 151.8 21.7598 151.613C21.8599 151.569 23.2038 149.969 24.7336 148.051C50.997 115.245 79.605 85.5975 111.416 58.257C113.589 56.3969 115.361 54.7962 115.376 54.7241C115.376 54.6232 102.551 41.7028 102.409 41.674C102.394 41.674 102.337 41.7461 102.294 41.8326Z" fill="#CD7916"/>
<path d="M116.148 61.1843C89.4412 81.5599 63.5496 107.415 31.3673 145.859C25.4056 152.997 24.1617 154.497 24.1617 154.597C24.1617 154.655 25.2769 155.823 26.6208 157.208C40.8319 171.599 59.1176 180.842 78.7758 183.553C82.736 184.101 82.2928 184.115 83.9655 183.293C88.4977 181.044 92.4579 177.237 95.7319 171.988C98.5912 167.417 101.694 159.789 103.652 152.492C105.068 147.258 106.312 141.792 107.798 134.395C107.956 133.645 108.656 130.141 109.357 126.608C112.373 111.568 113.746 105.872 116.162 98.4169C116.677 96.8451 118.207 92.7498 118.836 91.279C122.167 83.5787 126.199 77.8683 131.031 74.047C131.431 73.7298 131.774 73.4702 131.803 73.4414C131.889 73.3837 119.936 58.6176 119.765 58.5887C119.665 58.5599 118.049 59.7279 116.148 61.1843Z" fill="#CD7916"/>
<path d="M151.261 67.2984C150.989 67.3273 150.074 67.4859 149.231 67.6301C145.185 68.3944 141.997 70.0815 139.981 72.5329C139.109 73.5856 139.051 74.0614 139.623 75.5323C140.252 77.1329 140.796 78.0558 144.956 84.6458C148.044 89.5198 149.989 92.7499 151.761 95.8934C161.769 113.673 165.429 129.68 162.899 144.633C162.541 146.724 161.755 150.07 161.355 151.223C161.24 151.569 161.183 151.843 161.24 151.829C161.369 151.829 163.799 148.743 165.158 146.868C174.708 133.703 180.498 118.937 182.357 103.031C182.929 98.0276 183.143 91.9135 182.871 87.6163L182.7 84.8909L182.114 83.7229C177.71 74.869 168.646 68.7404 157.98 67.3994C156.522 67.2119 152.591 67.1542 151.261 67.2984Z" fill="#CD7916"/>
<path d="M132.318 78.5749C127.142 80.464 123.053 86.679 119.736 97.6959C117.964 103.608 116.648 109.203 113.803 123.075C110.329 140.004 108.914 146.09 106.783 153.285C103.724 163.653 100.107 171.642 95.9749 177.194C94.5166 179.155 92.2006 181.635 90.5707 182.962L89.427 183.899L93.7875 183.813C107.427 183.553 120.365 180.28 132.747 173.978C140.982 169.782 147.773 164.937 154.721 158.318C156.78 156.342 156.822 156.285 157.552 154.785C158.91 151.987 159.811 148.743 160.354 144.777C160.668 142.571 160.711 136.529 160.44 133.818C159.61 125.527 157.309 116.601 153.691 107.574C149.059 96.0376 142.769 85.4966 137.422 80.3053C135.878 78.7912 135.835 78.7624 134.848 78.5317C133.576 78.2433 133.204 78.2433 132.318 78.5749Z" fill="#CD7916"/>
</svg>
