<svg width="23" height="26" viewBox="0 0 23 26" fill="none" xmlns="http://www.w3.org/2000/svg">
<path d="M2.08484 23.2959C2.08484 23.9175 2.33177 24.5137 2.77131 24.9532C3.21085 25.3927 3.80699 25.6397 4.42859 25.6397H18.4911C19.1127 25.6397 19.7088 25.3927 20.1484 24.9532C20.5879 24.5137 20.8348 23.9175 20.8348 23.2959V6.88966H2.08484V23.2959ZM15.3661 10.7959C15.3661 10.5887 15.4484 10.39 15.5949 10.2435C15.7414 10.097 15.9401 10.0147 16.1473 10.0147C16.3545 10.0147 16.5533 10.097 16.6998 10.2435C16.8463 10.39 16.9286 10.5887 16.9286 10.7959V21.7334C16.9286 21.9406 16.8463 22.1393 16.6998 22.2858C16.5533 22.4323 16.3545 22.5147 16.1473 22.5147C15.9401 22.5147 15.7414 22.4323 15.5949 22.2858C15.4484 22.1393 15.3661 21.9406 15.3661 21.7334V10.7959ZM10.6786 10.7959C10.6786 10.5887 10.7609 10.39 10.9074 10.2435C11.0539 10.097 11.2526 10.0147 11.4598 10.0147C11.667 10.0147 11.8658 10.097 12.0123 10.2435C12.1588 10.39 12.2411 10.5887 12.2411 10.7959V21.7334C12.2411 21.9406 12.1588 22.1393 12.0123 22.2858C11.8658 22.4323 11.667 22.5147 11.4598 22.5147C11.2526 22.5147 11.0539 22.4323 10.9074 22.2858C10.7609 22.1393 10.6786 21.9406 10.6786 21.7334V10.7959ZM5.99109 10.7959C5.99109 10.5887 6.0734 10.39 6.21991 10.2435C6.36642 10.097 6.56514 10.0147 6.77234 10.0147C6.97954 10.0147 7.17825 10.097 7.32477 10.2435C7.47128 10.39 7.55359 10.5887 7.55359 10.7959V21.7334C7.55359 21.9406 7.47128 22.1393 7.32477 22.2858C7.17825 22.4323 6.97954 22.5147 6.77234 22.5147C6.56514 22.5147 6.36642 22.4323 6.21991 22.2858C6.0734 22.1393 5.99109 21.9406 5.99109 21.7334V10.7959ZM21.6161 2.20216H15.7567L15.2977 1.28907C15.2005 1.09386 15.0507 0.929658 14.8653 0.81493C14.6798 0.700201 14.466 0.639501 14.2479 0.639657H8.66687C8.44928 0.638821 8.23586 0.699295 8.05105 0.814151C7.86625 0.929007 7.71753 1.0936 7.62195 1.28907L7.16296 2.20216H1.30359C1.09639 2.20216 0.897674 2.28447 0.751162 2.43098C0.604649 2.57749 0.522339 2.77621 0.522339 2.98341L0.522339 4.54591C0.522339 4.75311 0.604649 4.95182 0.751162 5.09833C0.897674 5.24485 1.09639 5.32716 1.30359 5.32716H21.6161C21.8233 5.32716 22.022 5.24485 22.1685 5.09833C22.315 4.95182 22.3973 4.75311 22.3973 4.54591V2.98341C22.3973 2.77621 22.315 2.57749 22.1685 2.43098C22.022 2.28447 21.8233 2.20216 21.6161 2.20216V2.20216Z" fill="black"/>
</svg>
